<?xml version="1.0" encoding="UTF-8"?>
<svg xmlns="http://www.w3.org/2000/svg" xmlns:xlink="http://www.w3.org/1999/xlink" width="400" height="400" viewBox="-10 -11 20 20">
	<defs>
		<path id="a" d="M-6,-3.4641a6,6 0 0 1 12,0z"/>
		<path id="b" d="M0,-3.4641a6,6 0 0 0 -6,0a6,6 0 0 0 3,5.1961z"/>
		<path id="c" d="M0,-3.4641a6,6 0 0 1 3,5.1961a6,6 0 0 1 -6,0a6,6 0 0 1 3,-5.1961z"/>
	</defs>
	<path d="M-10,-11L10,-11L10,9L-10,9" fill="#fff"/>
	<use xlink:href="#a" fill="#0ff"/>
	<use xlink:href="#a" fill="#ff0" transform="rotate(120)"/>
	<use xlink:href="#a" fill="#f0f" transform="rotate(240)"/>
	<use xlink:href="#b" fill="#00f"/>
	<use xlink:href="#b" fill="#0f0" transform="rotate(120)"/>
	<use xlink:href="#b" fill="#f00" transform="rotate(240)"/>
	<use xlink:href="#c" fill="#000"/>
	<path stroke="#000" stroke-width=".5" fill="none" d="M1,-7a1,1 0 0 0 -2,0v2a1,1 0 0 0 2,0"/>
	<path stroke="#000" stroke-width=".5" fill="none" d="M-7,5.25v-4.5l1,3l1,-3v4.5"/>
	<path stroke="#000" stroke-width=".5" fill="none" d="M5,.75l1.2,2v2.75v-2.75l1.2,-2"/>
</svg>