<?xml version="1.0" encoding="utf-8"?>
<!-- Generator: Adobe Illustrator 14.0.0, SVG Export Plug-In . SVG Version: 6.00 Build 43363)  -->
<!DOCTYPE svg PUBLIC "-//W3C//DTD SVG 1.1//EN" "http://www.w3.org/Graphics/SVG/1.1/DTD/svg11.dtd">
<svg version="1.1" id="Layer_1" xmlns="http://www.w3.org/2000/svg" xmlns:xlink="http://www.w3.org/1999/xlink" x="0px" y="0px"
	 width="800px" height="600px" viewBox="0 0 800 600" enable-background="new 0 0 800 600" xml:space="preserve">
<rect fill="#CCCCCC" width="800" height="600.001"/>
<ellipse fill="#0086CC" stroke="#000000" cx="652.1436" cy="300" rx="76.1689" ry="46.2266"/>
<ellipse fill="#5A7B9C" stroke="#000000" cx="399.9995" cy="300" rx="76.1685" ry="46.2266"/>
<ellipse fill="#A1C1E6" stroke="#000000" cx="399.9995" cy="149.8042" rx="76.1685" ry="46.2256"/>
<ellipse fill="#1B405E" stroke="#000000" cx="399.9995" cy="450.1963" rx="76.1685" ry="46.2256"/>
<ellipse fill="#787878" stroke="#000000" cx="147.856" cy="300.001" rx="76.1685" ry="46.2256"/>
<ellipse fill="#FFFFFF" stroke="#000000" cx="147.8557" cy="99.998" rx="76.1682" ry="46.2256"/>
<ellipse stroke="#000000" cx="147.856" cy="500.0029" rx="76.1685" ry="46.2256"/>
<g>
	<path d="M603.7803,414.6152c2.0166-0.3359,4.6562-0.623,8.0166-0.623c4.1289,0,7.1523,0.959,9.0723,2.6875
		c1.7285,1.5361,2.832,3.8887,2.832,6.7686c0,2.9287-0.8633,5.2324-2.4961,6.9131c-2.2559,2.3516-5.8086,3.5518-9.8887,3.5518
		c-1.248,0-2.4004-0.0479-3.3594-0.2881v12.9609h-4.1768V414.6152z M607.957,430.2168c0.9121,0.2402,2.0635,0.3359,3.4551,0.3359
		c5.041,0,8.1133-2.4961,8.1133-6.8643c0-4.3203-3.0723-6.3848-7.6328-6.3848c-1.8242,0-3.2158,0.1436-3.9355,0.3369V430.2168z"/>
	<path d="M644.2461,441.0176c0,2.0166,0.0967,3.9844,0.3359,5.5684h-3.791l-0.3369-2.9277h-0.1436
		c-1.2969,1.8242-3.793,3.4561-7.1055,3.4561c-4.7031,0-7.1035-3.3115-7.1035-6.6729c0-5.6162,4.9922-8.6885,13.9688-8.6406v-0.4795
		c0-1.8721-0.5283-5.376-5.2803-5.3291c-2.208,0-4.4648,0.625-6.0967,1.7285l-0.96-2.832c1.9199-1.2002,4.752-2.0156,7.6807-2.0156
		c7.1045,0,8.832,4.8477,8.832,9.4561V441.0176z M640.166,434.7295c-4.6084-0.0967-9.8408,0.7197-9.8408,5.2324
		c0,2.7842,1.8242,4.0322,3.9365,4.0322c3.0723,0,5.041-1.9199,5.7129-3.8887c0.1436-0.4795,0.1914-0.959,0.1914-1.3438V434.7295z"
		/>
	<path d="M655.7656,416.8242c0,1.4395-1.0078,2.5918-2.6885,2.5918c-1.5361,0-2.5439-1.1523-2.5439-2.5918
		c0-1.4404,1.0557-2.6406,2.6406-2.6406C654.709,414.1836,655.7656,415.3359,655.7656,416.8242z M651.0605,446.5859v-23.2334h4.2246
		v23.2334H651.0605z"/>
	<path d="M662.292,429.6406c0-2.4473-0.0479-4.3682-0.1914-6.2881h3.7441l0.2402,3.8408h0.0957
		c1.1523-2.1602,3.8408-4.3203,7.6807-4.3203c3.2168,0,8.209,1.9199,8.209,9.8887v13.8242h-4.2246v-13.3926
		c0-3.7441-1.3926-6.8652-5.376-6.8652c-2.7363,0-4.8965,1.9688-5.665,4.3203c-0.1924,0.5293-0.2881,1.248-0.2881,1.9688v13.9688
		h-4.2246V429.6406z"/>
	<path d="M693.8281,417.7842v5.5684h6.0488v3.2158h-6.0488v12.5293c0,2.8809,0.8164,4.5127,3.168,4.5127
		c1.1523,0,1.8242-0.0967,2.4482-0.2881l0.1924,3.2168c-0.8164,0.2871-2.1123,0.5752-3.7441,0.5752
		c-1.9688,0-3.5527-0.6719-4.5605-1.7764c-1.1523-1.2959-1.6318-3.3594-1.6318-6.0957v-12.6738h-3.6006v-3.2158h3.6006v-4.3203
		L693.8281,417.7842z"/>
	<path d="M706.6924,435.7373c0.0957,5.7129,3.6963,8.0654,7.9688,8.0654c3.0244,0,4.8965-0.5293,6.4326-1.2012l0.7676,3.0254
		c-1.4873,0.6719-4.0801,1.4873-7.7764,1.4873c-7.1523,0-11.4248-4.752-11.4248-11.7607s4.1279-12.4805,10.8965-12.4805
		c7.6328,0,9.6016,6.624,9.6016,10.8965c0,0.8633-0.0488,1.4883-0.1445,1.9678H706.6924z M719.0771,432.7129
		c0.0488-2.6396-1.1035-6.8164-5.8564-6.8164c-4.3203,0-6.1445,3.8887-6.4805,6.8164H719.0771z"/>
	<path d="M728.3867,430.6016c0-2.7363-0.0479-5.0889-0.1914-7.249h3.6963l0.1914,4.6084h0.1445
		c1.0557-3.1211,3.6484-5.0879,6.4805-5.0879c0.4316,0,0.7686,0.0469,1.1523,0.0957v3.9844
		c-0.4326-0.0957-0.8643-0.0957-1.4404-0.0957c-2.9766,0-5.0879,2.207-5.6641,5.376c-0.0967,0.5752-0.1445,1.2959-0.1445,1.9678
		v12.3848h-4.2246V430.6016z"/>
	<path d="M743.5088,442.3145c1.2959,0.7676,3.5039,1.6318,5.6162,1.6318c3.0244,0,4.4639-1.4883,4.4639-3.4561
		c0-2.0166-1.2002-3.0723-4.2725-4.2246c-4.2236-1.5361-6.1924-3.793-6.1924-6.5762c0-3.7441,3.0723-6.8164,8.0166-6.8164
		c2.3525,0,4.417,0.623,5.665,1.4395l-1.0078,3.0723c-0.9121-0.5762-2.5928-1.3926-4.7529-1.3926
		c-2.4961,0-3.8398,1.4404-3.8398,3.1689c0,1.9199,1.3438,2.7842,4.3682,3.9844c3.9844,1.4873,6.0967,3.5039,6.0967,6.96
		c0,4.1289-3.2168,7.0088-8.6406,7.0088c-2.5449,0-4.8965-0.6719-6.5293-1.6318L743.5088,442.3145z"/>
	<path d="M767.5566,413.3672c-1.1045,4.0332-3.1689,9.2168-4.4648,11.4258l-2.6885,0.2871c1.0088-2.832,2.3047-7.7764,2.833-11.2324
		L767.5566,413.3672z"/>
	<path d="M536.248,503.1777c-1.4883,0.7686-4.6074,1.5371-8.5449,1.5371c-9.1201,0-15.9375-5.7607-15.9375-16.418
		c0-10.1768,6.8652-16.9932,16.8984-16.9932c3.9844,0,6.5762,0.8643,7.6797,1.4404l-1.0557,3.4082
		c-1.5361-0.7686-3.792-1.3438-6.4805-1.3438c-7.585,0-12.625,4.8477-12.625,13.3447c0,7.9688,4.5605,13.0088,12.3857,13.0088
		c2.5918,0,5.1836-0.5273,6.8633-1.3438L536.248,503.1777z"/>
	<path d="M561.8809,492.377c0,8.5938-6.001,12.3379-11.5703,12.3379c-6.2402,0-11.1367-4.6094-11.1367-11.9531
		c0-7.7285,5.1367-12.2891,11.5215-12.2891C557.3672,480.4727,561.8809,485.3203,561.8809,492.377z M543.4941,492.6172
		c0,5.0889,2.8809,8.9297,7.0098,8.9297c4.0312,0,7.0566-3.793,7.0566-9.0254c0-3.9365-1.9688-8.8809-6.9609-8.8809
		C545.6543,483.6406,543.4941,488.249,543.4941,492.6172z"/>
	<path d="M567.207,470.1035h4.2236v34.083h-4.2236V470.1035z"/>
	<path d="M599.5605,492.377c0,8.5938-6.001,12.3379-11.5703,12.3379c-6.2402,0-11.1367-4.6094-11.1367-11.9531
		c0-7.7285,5.1367-12.2891,11.5215-12.2891C595.0469,480.4727,599.5605,485.3203,599.5605,492.377z M581.1738,492.6172
		c0,5.0889,2.8809,8.9297,7.0098,8.9297c4.0312,0,7.0566-3.793,7.0566-9.0254c0-3.9365-1.9688-8.8809-6.9609-8.8809
		C583.334,483.6406,581.1738,488.249,581.1738,492.6172z"/>
	<path d="M604.8867,488.2012c0-2.7363-0.0488-5.0879-0.1924-7.248h3.6963l0.1914,4.6074h0.1445
		c1.0566-3.1201,3.6484-5.0879,6.4805-5.0879c0.4316,0,0.7676,0.0479,1.1523,0.0957v3.9844
		c-0.4316-0.0957-0.8643-0.0957-1.4404-0.0957c-2.9756,0-5.0889,2.208-5.665,5.377c-0.0957,0.5752-0.1436,1.2949-0.1436,1.9668
		v12.3857h-4.2236V488.2012z"/>
	<path d="M658.168,489.9775c-0.2402-4.5127-0.5283-9.9854-0.5283-13.9697h-0.0967c-1.1514,3.7441-2.4473,7.8252-4.0801,12.2891
		l-5.7129,15.6973h-3.168l-5.2803-15.4092c-1.5361-4.6084-2.7842-8.7363-3.6963-12.5771h-0.0957
		c-0.0957,4.0332-0.3359,9.4092-0.624,14.3057l-0.8643,13.873h-3.9844l2.2559-32.3545h5.3291l5.5205,15.6484
		c1.3438,3.9844,2.4004,7.5371,3.2637,10.8975h0.0957c0.8652-3.2646,2.0166-6.8164,3.457-10.8975l5.7598-15.6484h5.3291
		l2.0166,32.3545h-4.1289L658.168,489.9775z"/>
	<path d="M674.6289,474.4238c0,1.4404-1.0088,2.5918-2.6885,2.5918c-1.5361,0-2.5439-1.1514-2.5439-2.5918
		c0-1.4395,1.0557-2.6406,2.6396-2.6406C673.5723,471.7832,674.6289,472.9355,674.6289,474.4238z M669.9238,504.1865v-23.2334
		h4.2246v23.2334H669.9238z"/>
	<path d="M683.123,480.9531l3.3125,4.9922c0.9121,1.2959,1.6318,2.4473,2.3994,3.7441h0.0967
		c0.7676-1.3438,1.5361-2.5449,2.3516-3.793l3.2168-4.9434h4.6084l-7.9209,11.2324l8.1123,12.001h-4.752l-3.4561-5.2324
		c-0.9121-1.3447-1.6807-2.6396-2.4961-4.0322h-0.0967c-0.7676,1.3926-1.5361,2.6406-2.4482,4.0322l-3.3604,5.2324h-4.6562
		l8.2568-11.8564l-7.873-11.377H683.123z"/>
	<path d="M708.084,474.4238c0,1.4404-1.0088,2.5918-2.6885,2.5918c-1.5361,0-2.5439-1.1514-2.5439-2.5918
		c0-1.4395,1.0557-2.6406,2.6396-2.6406C707.0273,471.7832,708.084,472.9355,708.084,474.4238z M703.3789,504.1865v-23.2334h4.2246
		v23.2334H703.3789z"/>
	<path d="M714.6094,487.2412c0-2.4482-0.0479-4.3682-0.1914-6.2881h3.7441l0.2402,3.8398h0.0957
		c1.1523-2.1602,3.8408-4.3203,7.6807-4.3203c3.2168,0,8.209,1.9199,8.209,9.8887v13.8252h-4.2246V490.793
		c0-3.7441-1.3916-6.8643-5.376-6.8643c-2.7363,0-4.8965,1.9678-5.665,4.3203c-0.1924,0.5283-0.2881,1.248-0.2881,1.9678v13.9697
		h-4.2246V487.2412z"/>
	<path d="M761.124,500.7783c0,5.376-1.1045,8.5928-3.3125,10.6572c-2.3037,2.0645-5.5684,2.7832-8.4961,2.7832
		c-2.7842,0-5.8564-0.6719-7.7295-1.9199l1.0566-3.2637c1.5361,1.0078,3.9365,1.8721,6.8164,1.8721
		c4.3203,0,7.4883-2.2568,7.4883-8.1611v-2.5439h-0.0957c-1.248,2.1602-3.792,3.8877-7.3926,3.8877
		c-5.7607,0-9.8887-4.8955-9.8887-11.3281c0-7.873,5.1367-12.2891,10.5127-12.2891c4.0322,0,6.1924,2.0645,7.249,3.9844h0.0957
		l0.1445-3.5039h3.7441c-0.1445,1.6309-0.1924,3.5518-0.1924,6.3359V500.7783z M756.8994,490.1211
		c0-0.7197-0.0479-1.3438-0.2393-1.8721c-0.7686-2.4961-2.7852-4.5127-5.9053-4.5127c-4.0322,0-6.9121,3.4082-6.9121,8.7852
		c0,4.5605,2.3525,8.3525,6.8643,8.3525c2.6406,0,4.9922-1.6318,5.8564-4.3203c0.2402-0.7197,0.3359-1.5361,0.3359-2.2559V490.1211z
		"/>
	<path d="M522.6143,532.9844h-9.8408v-3.5527h23.9541v3.5527h-9.8896v28.8027h-4.2236V532.9844z"/>
	<path d="M539.125,550.9375c0.0957,5.7129,3.6963,8.0645,7.9688,8.0645c3.0244,0,4.8965-0.5273,6.4326-1.1992l0.7686,3.0234
		c-1.4883,0.6719-4.0811,1.4883-7.7773,1.4883c-7.1523,0-11.4248-4.752-11.4248-11.7607s4.1279-12.4814,10.8975-12.4814
		c7.6318,0,9.5996,6.625,9.5996,10.8975c0,0.8643-0.0469,1.4873-0.1436,1.9678H539.125z M551.5098,547.9141
		c0.0488-2.6406-1.1035-6.8174-5.8555-6.8174c-4.3213,0-6.1445,3.8887-6.4814,6.8174H551.5098z"/>
	<path d="M560.8203,545.8008c0-2.7363-0.0479-5.0879-0.1914-7.248h3.6963l0.1924,4.6084h0.1436
		c1.0557-3.1201,3.6484-5.0889,6.4805-5.0889c0.4326,0,0.7686,0.0488,1.1523,0.0957v3.9844
		c-0.4326-0.0957-0.8643-0.0957-1.4404-0.0957c-2.9766,0-5.0879,2.209-5.6641,5.377c-0.0957,0.5762-0.1445,1.2959-0.1445,1.9678
		v12.3857h-4.2246V545.8008z"/>
	<path d="M576.709,544.8418c0-2.4492-0.0967-4.3691-0.1924-6.2891h3.6963l0.1914,3.792h0.1445
		c1.2959-2.208,3.4561-4.2725,7.3447-4.2725c3.1201,0,5.5205,1.9199,6.5283,4.6562h0.0957
		c0.7207-1.3438,1.6807-2.3037,2.6406-3.0234c1.3926-1.0566,2.8809-1.6328,5.0879-1.6328c3.1211,0,7.6816,2.0166,7.6816,10.0811
		v13.6338h-4.1289v-13.1055c0-4.5127-1.6797-7.1523-5.041-7.1523c-2.4473,0-4.2715,1.7754-5.0391,3.792
		c-0.1934,0.624-0.3369,1.3447-0.3369,2.1123v14.3535h-4.1279v-13.9219c0-3.6963-1.6328-6.3359-4.8486-6.3359
		c-2.5928,0-4.5605,2.1113-5.2324,4.2246c-0.2402,0.5752-0.3359,1.3438-0.3359,2.0635v13.9697h-4.1279V544.8418z"/>
	<path d="M621.4453,532.0234c0,1.4414-1.0078,2.5928-2.6885,2.5928c-1.5361,0-2.5439-1.1514-2.5439-2.5928
		c0-1.4395,1.0557-2.6396,2.6406-2.6396C620.3887,529.3838,621.4453,530.5361,621.4453,532.0234z M616.7402,561.7871v-23.2344
		h4.2246v23.2344H616.7402z"/>
	<path d="M627.9727,544.8418c0-2.4492-0.0488-4.3691-0.1924-6.2891h3.7441l0.2402,3.8398h0.0957
		c1.1523-2.1602,3.8408-4.3203,7.6807-4.3203c3.2168,0,8.209,1.9199,8.209,9.8887v13.8262h-4.2246v-13.3936
		c0-3.7451-1.3926-6.8643-5.377-6.8643c-2.7363,0-4.8965,1.9678-5.6641,4.3203c-0.1914,0.5273-0.2881,1.248-0.2881,1.9678v13.9697
		h-4.2236V544.8418z"/>
	<path d="M675.6377,549.9775c0,8.5928-6.001,12.3369-11.5693,12.3369c-6.2402,0-11.1367-4.6084-11.1367-11.9531
		c0-7.7285,5.1367-12.2891,11.5205-12.2891C671.125,538.0723,675.6377,542.9209,675.6377,549.9775z M657.252,550.2178
		c0,5.0889,2.8799,8.9287,7.0088,8.9287c4.0322,0,7.0566-3.793,7.0566-9.0254c0-3.9355-1.9688-8.8809-6.9609-8.8809
		C659.4121,541.2402,657.252,545.8496,657.252,550.2178z"/>
	<path d="M680.9629,527.7031h4.2246v34.084h-4.2246V527.7031z"/>
	<path d="M713.3164,549.9775c0,8.5928-6.001,12.3369-11.5693,12.3369c-6.2402,0-11.1367-4.6084-11.1367-11.9531
		c0-7.7285,5.1367-12.2891,11.5205-12.2891C708.8037,538.0723,713.3164,542.9209,713.3164,549.9775z M694.9307,550.2178
		c0,5.0889,2.8799,8.9287,7.0088,8.9287c4.0322,0,7.0566-3.793,7.0566-9.0254c0-3.9355-1.9688-8.8809-6.9609-8.8809
		C697.0908,541.2402,694.9307,545.8496,694.9307,550.2178z"/>
	<path d="M738.5156,558.3789c0,5.376-1.1035,8.5918-3.3125,10.6562c-2.3037,2.0645-5.5684,2.7842-8.4961,2.7842
		c-2.7842,0-5.8564-0.6719-7.7285-1.9199l1.0557-3.2646c1.5361,1.0078,3.9365,1.873,6.8164,1.873
		c4.3203,0,7.4893-2.2568,7.4893-8.1611v-2.5439h-0.0967c-1.248,2.1602-3.792,3.8877-7.3926,3.8877
		c-5.7607,0-9.8887-4.8965-9.8887-11.3291c0-7.873,5.1367-12.2891,10.5127-12.2891c4.0322,0,6.1924,2.0645,7.249,3.9844h0.0957
		l0.1445-3.5039h3.7441c-0.1445,1.6318-0.1924,3.5527-0.1924,6.3359V558.3789z M734.291,547.7207
		c0-0.7188-0.0479-1.3438-0.2393-1.8711c-0.7686-2.4961-2.7842-4.5127-5.9053-4.5127c-4.0322,0-6.9121,3.4082-6.9121,8.7842
		c0,4.5605,2.3516,8.3535,6.8643,8.3535c2.6406,0,4.9922-1.6328,5.8564-4.3203c0.2402-0.7207,0.3359-1.5371,0.3359-2.2559V547.7207z
		"/>
	<path d="M747.0098,538.5527l5.041,13.7285c0.5762,1.5371,1.1523,3.3613,1.5361,4.7529h0.0957
		c0.4326-1.3916,0.9121-3.1689,1.4883-4.8486l4.6084-13.6328h4.4648l-6.3369,16.5615c-3.0244,7.9678-5.0889,12.001-7.9688,14.5449
		c-2.1123,1.7764-4.1279,2.4961-5.1846,2.6885l-1.0557-3.5039c1.0557-0.3359,2.4482-1.0088,3.6963-2.0645
		c1.1514-0.9121,2.5439-2.5449,3.5518-4.7051c0.1924-0.4316,0.3359-0.7676,0.3359-1.0078s-0.0957-0.5762-0.3359-1.1035
		l-8.5449-21.4102H747.0098z"/>
</g>
<g>
	<g opacity="0.5">
		<path fill="#FFFFFF" d="M624.3701,272.1143c1.5117-0.252,3.4922-0.4688,6.0117-0.4688c3.0957,0,5.3633,0.7207,6.8027,2.0166
			c1.2959,1.1514,2.124,2.915,2.124,5.0752c0,2.1953-0.6484,3.9229-1.8721,5.1836c-1.6914,1.7637-4.3555,2.6631-7.415,2.6631
			c-0.9355,0-1.7998-0.0361-2.5195-0.2158v9.7188h-3.1318V272.1143z M627.502,283.8125c0.6836,0.1797,1.5479,0.252,2.5918,0.252
			c3.7793,0,6.083-1.8721,6.083-5.1475c0-3.2393-2.3037-4.7871-5.7227-4.7871c-1.3682,0-2.4121,0.1074-2.9521,0.252V283.8125z"/>
		<path fill="#FFFFFF" d="M657.4531,291.2998c0,1.8359,0.0361,3.4189,0.1436,4.7871h-2.8076l-0.1797-2.8438h-0.0723
			c-0.792,1.4043-2.6631,3.2393-5.7588,3.2393c-2.7363,0-6.0117-1.5469-6.0117-7.6309V278.665h3.168v9.6113
			c0,3.3115,1.0439,5.5791,3.8877,5.5791c2.123,0,3.5996-1.4766,4.1748-2.916c0.1807-0.4316,0.2881-1.0078,0.2881-1.6201V278.665
			h3.168V291.2998z"/>
		<path fill="#FFFFFF" d="M662.7109,284.1006c0-2.0518-0.0361-3.8154-0.1445-5.4355h2.7715l0.1445,3.4561h0.1074
			c0.792-2.3398,2.7363-3.8164,4.8604-3.8164c0.3232,0,0.5752,0.0361,0.8633,0.0723v2.9883
			c-0.3242-0.0723-0.6475-0.0723-1.0801-0.0723c-2.2314,0-3.8154,1.6553-4.2471,4.0312c-0.0723,0.4316-0.1084,0.9717-0.1084,1.4756
			v9.2871h-3.167V284.1006z"/>
		<path fill="#FFFFFF" d="M675.8867,287.9521c0.0723,4.2832,2.7715,6.0469,5.9756,6.0469c2.2676,0,3.6709-0.3955,4.8232-0.8994
			l0.5752,2.2676c-1.1152,0.5039-3.0596,1.1152-5.8311,1.1152c-5.3633,0-8.5664-3.5635-8.5664-8.8184
			c0-5.2559,3.0957-9.3594,8.1709-9.3594c5.7227,0,7.1992,4.9678,7.1992,8.1719c0,0.6475-0.0361,1.1152-0.1084,1.4756H675.8867z
			 M685.1738,285.6846c0.0352-1.9805-0.8281-5.1113-4.3916-5.1113c-3.2402,0-4.6074,2.915-4.8594,5.1113H685.1738z"/>
		<path fill="#FFFFFF" d="M635.0957,331.3311c-1.1152,0.5762-3.4551,1.1514-6.4072,1.1514c-6.8389,0-11.9502-4.3193-11.9502-12.3096
			c0-7.6318,5.1475-12.7432,12.6699-12.7432c2.9883,0,4.9316,0.6484,5.7598,1.0801l-0.792,2.5557
			c-1.1514-0.5762-2.8438-1.0078-4.8594-1.0078c-5.6875,0-9.4668,3.6357-9.4668,10.0068c0,5.9756,3.4199,9.7549,9.2871,9.7549
			c1.9434,0,3.8877-0.3965,5.1475-1.0078L635.0957,331.3311z"/>
		<path fill="#FFFFFF" d="M654.3203,323.2324c0,6.4424-4.499,9.25-8.6748,9.25c-4.6797,0-8.3506-3.4551-8.3506-8.9629
			c0-5.7949,3.8516-9.2148,8.6387-9.2148C650.9365,314.3047,654.3203,317.9404,654.3203,323.2324z M640.5342,323.4121
			c0,3.8154,2.1602,6.6953,5.2549,6.6953c3.0244,0,5.292-2.8438,5.292-6.7676c0-2.9512-1.4756-6.6592-5.2197-6.6592
			C642.1543,316.6807,640.5342,320.1367,640.5342,323.4121z"/>
		<path fill="#FFFFFF" d="M658.3184,306.5303h3.167v25.5566h-3.167V306.5303z"/>
		<path fill="#FFFFFF" d="M682.5801,323.2324c0,6.4424-4.499,9.25-8.6748,9.25c-4.6797,0-8.3506-3.4551-8.3506-8.9629
			c0-5.7949,3.8516-9.2148,8.6387-9.2148C679.1963,314.3047,682.5801,317.9404,682.5801,323.2324z M668.7939,323.4121
			c0,3.8154,2.1602,6.6953,5.2549,6.6953c3.0244,0,5.292-2.8438,5.292-6.7676c0-2.9512-1.4756-6.6592-5.2197-6.6592
			C670.4141,316.6807,668.7939,320.1367,668.7939,323.4121z"/>
		<path fill="#FFFFFF" d="M686.5781,320.1006c0-2.0518-0.0361-3.8154-0.1445-5.4355h2.7715l0.1445,3.4561h0.1074
			c0.792-2.3398,2.7363-3.8164,4.8604-3.8164c0.3232,0,0.5752,0.0361,0.8633,0.0723v2.9883
			c-0.3242-0.0723-0.6475-0.0723-1.0801-0.0723c-2.2314,0-3.8154,1.6553-4.2471,4.0312c-0.0723,0.4316-0.1084,0.9717-0.1084,1.4756
			v9.2871h-3.167V320.1006z"/>
	</g>
	<g>
		<g>
			<path d="M622.3701,270.1143c1.5117-0.252,3.4922-0.4688,6.0117-0.4688c3.0957,0,5.3633,0.7207,6.8027,2.0166
				c1.2959,1.1514,2.124,2.915,2.124,5.0752c0,2.1953-0.6484,3.9229-1.8721,5.1836c-1.6914,1.7637-4.3555,2.6631-7.415,2.6631
				c-0.9355,0-1.7998-0.0361-2.5195-0.2158v9.7188h-3.1318V270.1143z M625.502,281.8125c0.6836,0.1797,1.5479,0.252,2.5918,0.252
				c3.7793,0,6.083-1.8721,6.083-5.1475c0-3.2393-2.3037-4.7871-5.7227-4.7871c-1.3682,0-2.4121,0.1074-2.9521,0.252V281.8125z"/>
			<path d="M655.4531,289.2998c0,1.8359,0.0361,3.4189,0.1436,4.7871h-2.8076l-0.1797-2.8438h-0.0723
				c-0.792,1.4043-2.6631,3.2393-5.7588,3.2393c-2.7363,0-6.0117-1.5469-6.0117-7.6309V276.665h3.168v9.6113
				c0,3.3115,1.0439,5.5791,3.8877,5.5791c2.123,0,3.5996-1.4766,4.1748-2.916c0.1807-0.4316,0.2881-1.0078,0.2881-1.6201V276.665
				h3.168V289.2998z"/>
			<path d="M660.7109,282.1006c0-2.0518-0.0361-3.8154-0.1445-5.4355h2.7715l0.1445,3.4561h0.1074
				c0.792-2.3398,2.7363-3.8164,4.8604-3.8164c0.3232,0,0.5752,0.0361,0.8633,0.0723v2.9883
				c-0.3242-0.0723-0.6475-0.0723-1.0801-0.0723c-2.2314,0-3.8154,1.6553-4.2471,4.0312c-0.0723,0.4316-0.1084,0.9717-0.1084,1.4756
				v9.2871h-3.167V282.1006z"/>
			<path d="M673.8867,285.9521c0.0723,4.2832,2.7715,6.0469,5.9756,6.0469c2.2676,0,3.6709-0.3955,4.8232-0.8994l0.5752,2.2676
				c-1.1152,0.5039-3.0596,1.1152-5.8311,1.1152c-5.3633,0-8.5664-3.5635-8.5664-8.8184c0-5.2559,3.0957-9.3594,8.1709-9.3594
				c5.7227,0,7.1992,4.9678,7.1992,8.1719c0,0.6475-0.0361,1.1152-0.1084,1.4756H673.8867z M683.1738,283.6846
				c0.0352-1.9805-0.8281-5.1113-4.3916-5.1113c-3.2402,0-4.6074,2.915-4.8594,5.1113H683.1738z"/>
			<path d="M633.0957,329.3311c-1.1152,0.5762-3.4551,1.1514-6.4072,1.1514c-6.8389,0-11.9502-4.3193-11.9502-12.3096
				c0-7.6318,5.1475-12.7432,12.6699-12.7432c2.9883,0,4.9316,0.6484,5.7598,1.0801l-0.792,2.5557
				c-1.1514-0.5762-2.8438-1.0078-4.8594-1.0078c-5.6875,0-9.4668,3.6357-9.4668,10.0068c0,5.9756,3.4199,9.7549,9.2871,9.7549
				c1.9434,0,3.8877-0.3965,5.1475-1.0078L633.0957,329.3311z"/>
			<path d="M652.3203,321.2324c0,6.4424-4.499,9.25-8.6748,9.25c-4.6797,0-8.3506-3.4551-8.3506-8.9629
				c0-5.7949,3.8516-9.2148,8.6387-9.2148C648.9365,312.3047,652.3203,315.9404,652.3203,321.2324z M638.5342,321.4121
				c0,3.8154,2.1602,6.6953,5.2549,6.6953c3.0244,0,5.292-2.8438,5.292-6.7676c0-2.9512-1.4756-6.6592-5.2197-6.6592
				C640.1543,314.6807,638.5342,318.1367,638.5342,321.4121z"/>
			<path d="M656.3184,304.5303h3.167v25.5566h-3.167V304.5303z"/>
			<path d="M680.5801,321.2324c0,6.4424-4.499,9.25-8.6748,9.25c-4.6797,0-8.3506-3.4551-8.3506-8.9629
				c0-5.7949,3.8516-9.2148,8.6387-9.2148C677.1963,312.3047,680.5801,315.9404,680.5801,321.2324z M666.7939,321.4121
				c0,3.8154,2.1602,6.6953,5.2549,6.6953c3.0244,0,5.292-2.8438,5.292-6.7676c0-2.9512-1.4756-6.6592-5.2197-6.6592
				C668.4141,314.6807,666.7939,318.1367,666.7939,321.4121z"/>
			<path d="M684.5781,318.1006c0-2.0518-0.0361-3.8154-0.1445-5.4355h2.7715l0.1445,3.4561h0.1074
				c0.792-2.3398,2.7363-3.8164,4.8604-3.8164c0.3232,0,0.5752,0.0361,0.8633,0.0723v2.9883
				c-0.3242-0.0723-0.6475-0.0723-1.0801-0.0723c-2.2314,0-3.8154,1.6553-4.2471,4.0312c-0.0723,0.4316-0.1084,0.9717-0.1084,1.4756
				v9.2871h-3.167V318.1006z"/>
		</g>
	</g>
</g>
<g>
	<g opacity="0.5">
		<path fill="#FFFFFF" d="M380.3623,141.4951h-7.3789v-2.6631h17.9619v2.6631h-7.415v21.5977h-3.168V141.4951z"/>
		<path fill="#FFFFFF" d="M396.6348,140.7754c0,1.0801-0.7559,1.9443-2.0156,1.9443c-1.1523,0-1.9082-0.8643-1.9082-1.9443
			s0.792-1.9795,1.9805-1.9795C395.8428,138.7959,396.6348,139.6602,396.6348,140.7754z M393.1074,163.0928v-17.4219h3.167v17.4219
			H393.1074z"/>
		<path fill="#FFFFFF" d="M401.5312,150.3867c0-1.8359-0.0361-3.2764-0.1445-4.7158h2.8076l0.1807,2.8799h0.0713
			c0.8643-1.6201,2.8799-3.2402,5.7598-3.2402c2.4111,0,6.1553,1.4404,6.1553,7.416v10.3662h-3.168v-10.043
			c0-2.8076-1.0439-5.1475-4.0312-5.1475c-2.0518,0-3.6719,1.4766-4.2471,3.2402c-0.1445,0.3955-0.2168,0.9355-0.2168,1.4756
			v10.4746h-3.167V150.3867z"/>
		<path fill="#FFFFFF" d="M425.1816,141.4951v4.1758h4.5352v2.4121h-4.5352v9.3945c0,2.1592,0.6113,3.3838,2.376,3.3838
			c0.8633,0,1.3672-0.0723,1.835-0.2158l0.1445,2.4111c-0.6123,0.2158-1.584,0.4316-2.8076,0.4316
			c-1.4756,0-2.6641-0.5039-3.4199-1.3311c-0.8633-0.9727-1.2236-2.5205-1.2236-4.5713v-9.5029h-2.7002v-2.4121h2.7002v-3.2393
			L425.1816,141.4951z"/>
	</g>
	<g>
		<g>
			<path d="M378.3623,139.4951h-7.3789v-2.6631h17.9619v2.6631h-7.415v21.5977h-3.168V139.4951z"/>
			<path d="M394.6348,138.7754c0,1.0801-0.7559,1.9443-2.0156,1.9443c-1.1523,0-1.9082-0.8643-1.9082-1.9443
				s0.792-1.9795,1.9805-1.9795C393.8428,136.7959,394.6348,137.6602,394.6348,138.7754z M391.1074,161.0928v-17.4219h3.167v17.4219
				H391.1074z"/>
			<path d="M399.5312,148.3867c0-1.8359-0.0361-3.2764-0.1445-4.7158h2.8076l0.1807,2.8799h0.0713
				c0.8643-1.6201,2.8799-3.2402,5.7598-3.2402c2.4111,0,6.1553,1.4404,6.1553,7.416v10.3662h-3.168v-10.043
				c0-2.8076-1.0439-5.1475-4.0312-5.1475c-2.0518,0-3.6719,1.4766-4.2471,3.2402c-0.1445,0.3955-0.2168,0.9355-0.2168,1.4756
				v10.4746h-3.167V148.3867z"/>
			<path d="M423.1816,139.4951v4.1758h4.5352v2.4121h-4.5352v9.3945c0,2.1592,0.6113,3.3838,2.376,3.3838
				c0.8633,0,1.3672-0.0723,1.835-0.2158l0.1445,2.4111c-0.6123,0.2158-1.584,0.4316-2.8076,0.4316
				c-1.4756,0-2.6641-0.5039-3.4199-1.3311c-0.8633-0.9727-1.2236-2.5205-1.2236-4.5713v-9.5029h-2.7002v-2.4121h2.7002v-3.2393
				L423.1816,139.4951z"/>
		</g>
	</g>
</g>
<g>
	<g opacity="0.5">
		<path fill="#FFFFFF" d="M373.8809,293.3545h-7.3789v-2.6631h17.9619v2.6631h-7.415v21.5977h-3.168V293.3545z"/>
		<path fill="#FFFFFF" d="M400.2676,306.0977c0,6.4424-4.499,9.25-8.6748,9.25c-4.6797,0-8.3506-3.4551-8.3506-8.9629
			c0-5.7949,3.8516-9.2148,8.6387-9.2148C396.8838,297.1699,400.2676,300.8057,400.2676,306.0977z M386.4814,306.2773
			c0,3.8154,2.1602,6.6953,5.2549,6.6953c3.0244,0,5.292-2.8438,5.292-6.7676c0-2.9512-1.4756-6.6592-5.2197-6.6592
			C388.1016,299.5459,386.4814,303.002,386.4814,306.2773z"/>
		<path fill="#FFFFFF" d="M404.2656,302.2461c0-1.8359-0.0361-3.2764-0.1445-4.7158h2.8076l0.1807,2.8799h0.0713
			c0.8643-1.6201,2.8799-3.2402,5.7598-3.2402c2.4111,0,6.1553,1.4404,6.1553,7.416v10.3662h-3.168v-10.043
			c0-2.8076-1.0439-5.1475-4.0312-5.1475c-2.0518,0-3.6719,1.4766-4.2471,3.2402c-0.1445,0.3955-0.2168,0.9355-0.2168,1.4756
			v10.4746h-3.167V302.2461z"/>
		<path fill="#FFFFFF" d="M426.0088,306.8174c0.0723,4.2832,2.7715,6.0469,5.9756,6.0469c2.2676,0,3.6709-0.3955,4.8232-0.8994
			l0.5752,2.2676c-1.1152,0.5039-3.0596,1.1152-5.8311,1.1152c-5.3633,0-8.5664-3.5635-8.5664-8.8184
			c0-5.2559,3.0957-9.3594,8.1709-9.3594c5.7227,0,7.1992,4.9678,7.1992,8.1719c0,0.6475-0.0361,1.1152-0.1084,1.4756H426.0088z
			 M435.2959,304.5498c0.0352-1.9805-0.8281-5.1113-4.3916-5.1113c-3.2402,0-4.6074,2.915-4.8594,5.1113H435.2959z"/>
	</g>
	<g>
		<g>
			<path d="M371.8809,291.3545h-7.3789v-2.6631h17.9619v2.6631h-7.415v21.5977h-3.168V291.3545z"/>
			<path d="M398.2676,304.0977c0,6.4424-4.499,9.25-8.6748,9.25c-4.6797,0-8.3506-3.4551-8.3506-8.9629
				c0-5.7949,3.8516-9.2148,8.6387-9.2148C394.8838,295.1699,398.2676,298.8057,398.2676,304.0977z M384.4814,304.2773
				c0,3.8154,2.1602,6.6953,5.2549,6.6953c3.0244,0,5.292-2.8438,5.292-6.7676c0-2.9512-1.4756-6.6592-5.2197-6.6592
				C386.1016,297.5459,384.4814,301.002,384.4814,304.2773z"/>
			<path d="M402.2656,300.2461c0-1.8359-0.0361-3.2764-0.1445-4.7158h2.8076l0.1807,2.8799h0.0713
				c0.8643-1.6201,2.8799-3.2402,5.7598-3.2402c2.4111,0,6.1553,1.4404,6.1553,7.416v10.3662h-3.168v-10.043
				c0-2.8076-1.0439-5.1475-4.0312-5.1475c-2.0518,0-3.6719,1.4766-4.2471,3.2402c-0.1445,0.3955-0.2168,0.9355-0.2168,1.4756
				v10.4746h-3.167V300.2461z"/>
			<path d="M424.0088,304.8174c0.0723,4.2832,2.7715,6.0469,5.9756,6.0469c2.2676,0,3.6709-0.3955,4.8232-0.8994l0.5752,2.2676
				c-1.1152,0.5039-3.0596,1.1152-5.8311,1.1152c-5.3633,0-8.5664-3.5635-8.5664-8.8184c0-5.2559,3.0957-9.3594,8.1709-9.3594
				c5.7227,0,7.1992,4.9678,7.1992,8.1719c0,0.6475-0.0361,1.1152-0.1084,1.4756H424.0088z M433.2959,302.5498
				c0.0352-1.9805-0.8281-5.1113-4.3916-5.1113c-3.2402,0-4.6074,2.915-4.8594,5.1113H433.2959z"/>
		</g>
	</g>
</g>
<g>
	<path fill="#FFFFFF" d="M111.7148,488.541c1.3682-0.3232,3.5635-0.54,5.7236-0.54c3.1318,0,5.1475,0.54,6.623,1.7646
		c1.2598,0.9355,2.0518,2.375,2.0518,4.2832c0,2.376-1.584,4.4277-4.1035,5.3271v0.1084c2.3037,0.54,5.0039,2.4473,5.0039,6.0469
		c0,2.0879-0.8281,3.708-2.0879,4.8594c-1.6562,1.5479-4.3916,2.2676-8.3516,2.2676c-2.1592,0-3.8154-0.1436-4.8594-0.2881V488.541z
		 M114.8467,498.4766h2.8438c3.2754,0,5.2197-1.7646,5.2197-4.1035c0-2.8076-2.124-3.96-5.292-3.96
		c-1.4395,0-2.2676,0.1084-2.7715,0.2158V498.4766z M114.8467,510.0664c0.6484,0.1084,1.5117,0.1445,2.6279,0.1445
		c3.2393,0,6.2266-1.1885,6.2266-4.7158c0-3.2754-2.8428-4.6797-6.2627-4.6797h-2.5918V510.0664z"/>
	<path fill="#FFFFFF" d="M131.1191,486.8857h3.167v25.5566h-3.167V486.8857z"/>
	<path fill="#FFFFFF" d="M151.8535,508.2666c0,1.5117,0.0723,2.9883,0.252,4.1758h-2.8438l-0.252-2.1953h-0.1084
		c-0.9717,1.3672-2.8428,2.5908-5.3271,2.5908c-3.5273,0-5.3271-2.4834-5.3271-5.0029c0-4.2119,3.7432-6.5156,10.4746-6.4795
		v-0.3594c0-1.4043-0.3955-4.0322-3.959-3.9961c-1.6562,0-3.3477,0.4688-4.5723,1.2959l-0.7197-2.123
		c1.4404-0.9004,3.5635-1.5127,5.7598-1.5127c5.3271,0,6.623,3.6357,6.623,7.0918V508.2666z M148.7939,503.5518
		c-3.4561-0.0723-7.3789,0.54-7.3789,3.9229c0,2.0879,1.3672,3.0244,2.9512,3.0244c2.3037,0,3.7793-1.4404,4.2832-2.916
		c0.1084-0.3604,0.1445-0.7197,0.1445-1.0078V503.5518z"/>
	<path fill="#FFFFFF" d="M169.3848,511.8301c-0.8281,0.3965-2.6631,1.0078-5.0029,1.0078c-5.2559,0-8.6748-3.5635-8.6748-8.8906
		c0-5.3633,3.6709-9.2871,9.3584-9.2871c1.8721,0,3.5273,0.4688,4.3916,0.9365l-0.7197,2.4111
		c-0.7559-0.3955-1.9443-0.8271-3.6719-0.8271c-3.9951,0-6.1553,2.9873-6.1553,6.5869c0,4.0312,2.5918,6.5146,6.0479,6.5146
		c1.7988,0,2.9873-0.4316,3.8867-0.8271L169.3848,511.8301z"/>
	<path fill="#FFFFFF" d="M176.2266,503.0117h0.0713c0.4326-0.6123,1.0078-1.3682,1.5117-1.9795l5.1475-6.0117h3.7793l-6.6943,7.1631
		l7.667,10.2588h-3.8877l-5.9756-8.3506l-1.6191,1.7998v6.5508h-3.1318v-25.5566h3.1318V503.0117z"/>
</g>
<g>
	<g opacity="0.5">
		<path d="M358.5742,461.1289c1.4033,0.8994,3.4199,1.584,5.5791,1.584c3.2041,0,5.0752-1.6924,5.0752-4.1396
			c0-2.2314-1.2959-3.5635-4.5713-4.7871c-3.959-1.4404-6.4072-3.5283-6.4072-6.9111c0-3.7803,3.1318-6.5879,7.8467-6.5879
			c2.4482,0,4.2842,0.5762,5.3281,1.1885l-0.8643,2.5557c-0.7559-0.4678-2.376-1.1523-4.5713-1.1523
			c-3.3115,0-4.5713,1.9795-4.5713,3.6357c0,2.2676,1.4756,3.3838,4.8232,4.6797c4.1035,1.584,6.1553,3.5635,6.1553,7.127
			c0,3.7432-2.7354,7.0186-8.459,7.0186c-2.3398,0-4.8955-0.7197-6.1914-1.583L358.5742,461.1289z"/>
		<path d="M376.6104,439.3877h3.167v10.9062h0.0723c0.5039-0.8994,1.2959-1.7275,2.2676-2.2676
			c0.9365-0.54,2.0518-0.8643,3.2402-0.8643c2.3389,0,6.083,1.4404,6.083,7.416v10.3662h-3.168v-10.0068
			c0-2.8076-1.0439-5.1475-4.0312-5.1475c-2.0518,0-3.6357,1.4404-4.2471,3.1318c-0.1807,0.4678-0.2168,0.9355-0.2168,1.5117
			v10.5107h-3.167V439.3877z"/>
		<path d="M408.8281,460.7686c0,1.5117,0.0723,2.9883,0.252,4.1758h-2.8438l-0.252-2.1953h-0.1084
			c-0.9717,1.3672-2.8428,2.5908-5.3271,2.5908c-3.5273,0-5.3271-2.4834-5.3271-5.0029c0-4.2119,3.7432-6.5156,10.4746-6.4795
			v-0.3594c0-1.4043-0.3955-4.0322-3.959-3.9961c-1.6562,0-3.3477,0.4688-4.5723,1.2959l-0.7197-2.123
			c1.4404-0.9004,3.5635-1.5127,5.7598-1.5127c5.3271,0,6.623,3.6357,6.623,7.0918V460.7686z M405.7686,456.0537
			c-3.4561-0.0723-7.3789,0.54-7.3789,3.9229c0,2.0879,1.3672,3.0244,2.9512,3.0244c2.3037,0,3.7793-1.4404,4.2832-2.916
			c0.1084-0.3604,0.1445-0.7197,0.1445-1.0078V456.0537z"/>
		<path d="M428.9512,439.3877v21.0576c0,1.5479,0.0723,3.3115,0.1445,4.499h-2.8086l-0.1436-3.0234h-0.1084
			c-0.9355,1.9434-3.0234,3.4189-5.8672,3.4189c-4.2109,0-7.4863-3.5635-7.4863-8.8545c-0.0361-5.7949,3.5996-9.3232,7.8105-9.3232
			c2.7002,0,4.4639,1.2607,5.2559,2.6279h0.0713v-10.4023H428.9512z M425.8193,454.6133c0-0.3955-0.0361-0.9355-0.1436-1.3311
			c-0.4678-1.9805-2.1963-3.6357-4.5713-3.6357c-3.2754,0-5.2197,2.8799-5.2197,6.6953c0,3.5273,1.7637,6.4424,5.1475,6.4424
			c2.124,0,4.0674-1.4395,4.6436-3.7793c0.1074-0.4316,0.1436-0.8633,0.1436-1.3672V454.6133z"/>
		<path d="M436.0088,456.8096c0.0723,4.2832,2.7715,6.0469,5.9756,6.0469c2.2676,0,3.6709-0.3955,4.8232-0.8994l0.5752,2.2676
			c-1.1152,0.5039-3.0596,1.1152-5.8311,1.1152c-5.3633,0-8.5664-3.5635-8.5664-8.8184c0-5.2559,3.0957-9.3594,8.1709-9.3594
			c5.7227,0,7.1992,4.9678,7.1992,8.1719c0,0.6475-0.0361,1.1152-0.1084,1.4756H436.0088z M445.2959,454.542
			c0.0352-1.9805-0.8281-5.1113-4.3916-5.1113c-3.2402,0-4.6074,2.915-4.8594,5.1113H445.2959z"/>
	</g>
	<g>
		<g>
			<path fill="#FFFFFF" d="M356.5742,459.1289c1.4033,0.8994,3.4199,1.584,5.5791,1.584c3.2041,0,5.0752-1.6924,5.0752-4.1396
				c0-2.2314-1.2959-3.5635-4.5713-4.7871c-3.959-1.4404-6.4072-3.5283-6.4072-6.9111c0-3.7803,3.1318-6.5879,7.8467-6.5879
				c2.4482,0,4.2842,0.5762,5.3281,1.1885l-0.8643,2.5557c-0.7559-0.4678-2.376-1.1523-4.5713-1.1523
				c-3.3115,0-4.5713,1.9795-4.5713,3.6357c0,2.2676,1.4756,3.3838,4.8232,4.6797c4.1035,1.584,6.1553,3.5635,6.1553,7.127
				c0,3.7432-2.7354,7.0186-8.459,7.0186c-2.3398,0-4.8955-0.7197-6.1914-1.583L356.5742,459.1289z"/>
			<path fill="#FFFFFF" d="M374.6104,437.3877h3.167v10.9062h0.0723c0.5039-0.8994,1.2959-1.7275,2.2676-2.2676
				c0.9365-0.54,2.0518-0.8643,3.2402-0.8643c2.3389,0,6.083,1.4404,6.083,7.416v10.3662h-3.168v-10.0068
				c0-2.8076-1.0439-5.1475-4.0312-5.1475c-2.0518,0-3.6357,1.4404-4.2471,3.1318c-0.1807,0.4678-0.2168,0.9355-0.2168,1.5117
				v10.5107h-3.167V437.3877z"/>
			<path fill="#FFFFFF" d="M406.8281,458.7686c0,1.5117,0.0723,2.9883,0.252,4.1758h-2.8438l-0.252-2.1953h-0.1084
				c-0.9717,1.3672-2.8428,2.5908-5.3271,2.5908c-3.5273,0-5.3271-2.4834-5.3271-5.0029c0-4.2119,3.7432-6.5156,10.4746-6.4795
				v-0.3594c0-1.4043-0.3955-4.0322-3.959-3.9961c-1.6562,0-3.3477,0.4688-4.5723,1.2959l-0.7197-2.123
				c1.4404-0.9004,3.5635-1.5127,5.7598-1.5127c5.3271,0,6.623,3.6357,6.623,7.0918V458.7686z M403.7686,454.0537
				c-3.4561-0.0723-7.3789,0.54-7.3789,3.9229c0,2.0879,1.3672,3.0244,2.9512,3.0244c2.3037,0,3.7793-1.4404,4.2832-2.916
				c0.1084-0.3604,0.1445-0.7197,0.1445-1.0078V454.0537z"/>
			<path fill="#FFFFFF" d="M426.9512,437.3877v21.0576c0,1.5479,0.0723,3.3115,0.1445,4.499h-2.8086l-0.1436-3.0234h-0.1084
				c-0.9355,1.9434-3.0234,3.4189-5.8672,3.4189c-4.2109,0-7.4863-3.5635-7.4863-8.8545c-0.0361-5.7949,3.5996-9.3232,7.8105-9.3232
				c2.7002,0,4.4639,1.2607,5.2559,2.6279h0.0713v-10.4023H426.9512z M423.8193,452.6133c0-0.3955-0.0361-0.9355-0.1436-1.3311
				c-0.4678-1.9805-2.1963-3.6357-4.5713-3.6357c-3.2754,0-5.2197,2.8799-5.2197,6.6953c0,3.5273,1.7637,6.4424,5.1475,6.4424
				c2.124,0,4.0674-1.4395,4.6436-3.7793c0.1074-0.4316,0.1436-0.8633,0.1436-1.3672V452.6133z"/>
			<path fill="#FFFFFF" d="M434.0088,454.8096c0.0723,4.2832,2.7715,6.0469,5.9756,6.0469c2.2676,0,3.6709-0.3955,4.8232-0.8994
				l0.5752,2.2676c-1.1152,0.5039-3.0596,1.1152-5.8311,1.1152c-5.3633,0-8.5664-3.5635-8.5664-8.8184
				c0-5.2559,3.0957-9.3594,8.1709-9.3594c5.7227,0,7.1992,4.9678,7.1992,8.1719c0,0.6475-0.0361,1.1152-0.1084,1.4756H434.0088z
				 M443.2959,452.542c0.0352-1.9805-0.8281-5.1113-4.3916-5.1113c-3.2402,0-4.6074,2.915-4.8594,5.1113H443.2959z"/>
		</g>
	</g>
</g>
<g>
	<g opacity="0.5">
		<path fill="#FFFFFF" d="M137.4087,314.5098c-1.4038,0.54-4.2114,1.332-7.4868,1.332c-3.6719,0-6.6953-0.9355-9.0713-3.2031
			c-2.0874-2.0166-3.3833-5.2559-3.3833-9.0352c0-7.2354,5.0034-12.5264,13.1382-12.5264c2.8076,0,5.0396,0.6118,6.0835,1.1157
			l-0.792,2.5557c-1.2959-0.6118-2.9155-1.0439-5.3633-1.0439c-5.9033,0-9.7549,3.6714-9.7549,9.7544
			c0,6.1553,3.6714,9.791,9.3589,9.791c2.0518,0,3.4556-0.2881,4.1753-0.6475v-7.2354h-4.895v-2.5195h7.9907V314.5098z"/>
		<path fill="#FFFFFF" d="M142.0547,303.6035c0-2.0518-0.0356-3.8159-0.1436-5.4355h2.7715l0.144,3.4551h0.1079
			c0.792-2.3394,2.7358-3.8149,4.8594-3.8149c0.3237,0,0.5762,0.0361,0.8638,0.0718v2.9878
			c-0.3237-0.0718-0.6479-0.0718-1.0796-0.0718c-2.2319,0-3.8154,1.6553-4.2476,4.0312c-0.0723,0.4326-0.1079,0.9717-0.1079,1.4756
			v9.2871h-3.168V303.6035z"/>
		<path fill="#FFFFFF" d="M165.8857,311.4141c0,1.5117,0.0718,2.9883,0.252,4.1758h-2.8438l-0.252-2.1953h-0.1079
			c-0.9722,1.3672-2.8438,2.5908-5.3271,2.5908c-3.5278,0-5.3276-2.4834-5.3276-5.0029c0-4.2119,3.7437-6.5156,10.4746-6.4785
			v-0.3613c0-1.4033-0.396-4.0308-3.9595-3.9946c-1.6558,0-3.3477,0.4678-4.5713,1.2954l-0.7197-2.1235
			c1.4395-0.8999,3.5635-1.5117,5.7593-1.5117c5.3271,0,6.623,3.6353,6.623,7.0913V311.4141z M162.8262,306.6992
			c-3.4556-0.0723-7.3794,0.54-7.3794,3.9229c0,2.0879,1.3682,3.0244,2.9517,3.0244c2.3037,0,3.7798-1.4404,4.2837-2.916
			c0.1079-0.3604,0.144-0.7197,0.144-1.0078V306.6992z"/>
		<path fill="#FFFFFF" d="M171.8628,298.168l3.7798,10.2949c0.4321,1.1514,0.8638,2.5195,1.1519,3.5635h0.0718
			c0.3242-1.0439,0.6841-2.376,1.1162-3.6357l3.4556-10.2227h3.3472l-4.751,12.4189c-2.2681,5.9746-3.8159,8.998-5.9756,10.9062
			c-1.5835,1.332-3.0957,1.8721-3.8872,2.0156l-0.792-2.6279c0.792-0.252,1.8359-0.7559,2.7715-1.5479
			c0.8638-0.6836,1.9077-1.9072,2.6636-3.5273c0.144-0.3242,0.252-0.5762,0.252-0.7559s-0.0718-0.4316-0.252-0.8281l-6.4072-16.0537
			H171.8628z"/>
		<path fill="#FFFFFF" d="M137.4087,314.5098c-1.4038,0.54-4.2114,1.332-7.4868,1.332c-3.6719,0-6.6953-0.9355-9.0713-3.2031
			c-2.0874-2.0166-3.3833-5.2559-3.3833-9.0352c0-7.2354,5.0034-12.5264,13.1382-12.5264c2.8076,0,5.0396,0.6118,6.0835,1.1157
			l-0.792,2.5557c-1.2959-0.6118-2.9155-1.0439-5.3633-1.0439c-5.9033,0-9.7549,3.6714-9.7549,9.7544
			c0,6.1553,3.6714,9.791,9.3589,9.791c2.0518,0,3.4556-0.2881,4.1753-0.6475v-7.2354h-4.895v-2.5195h7.9907V314.5098z"/>
		<path fill="#FFFFFF" d="M142.0547,303.6035c0-2.0518-0.0356-3.8159-0.1436-5.4355h2.7715l0.144,3.4551h0.1079
			c0.792-2.3394,2.7358-3.8149,4.8594-3.8149c0.3237,0,0.5762,0.0361,0.8638,0.0718v2.9878
			c-0.3237-0.0718-0.6479-0.0718-1.0796-0.0718c-2.2319,0-3.8154,1.6553-4.2476,4.0312c-0.0723,0.4326-0.1079,0.9717-0.1079,1.4756
			v9.2871h-3.168V303.6035z"/>
		<path fill="#FFFFFF" d="M165.8857,311.4141c0,1.5117,0.0718,2.9883,0.252,4.1758h-2.8438l-0.252-2.1953h-0.1079
			c-0.9722,1.3672-2.8438,2.5908-5.3271,2.5908c-3.5278,0-5.3276-2.4834-5.3276-5.0029c0-4.2119,3.7437-6.5156,10.4746-6.4785
			v-0.3613c0-1.4033-0.396-4.0308-3.9595-3.9946c-1.6558,0-3.3477,0.4678-4.5713,1.2954l-0.7197-2.1235
			c1.4395-0.8999,3.5635-1.5117,5.7593-1.5117c5.3271,0,6.623,3.6353,6.623,7.0913V311.4141z M162.8262,306.6992
			c-3.4556-0.0723-7.3794,0.54-7.3794,3.9229c0,2.0879,1.3682,3.0244,2.9517,3.0244c2.3037,0,3.7798-1.4404,4.2837-2.916
			c0.1079-0.3604,0.144-0.7197,0.144-1.0078V306.6992z"/>
		<path fill="#FFFFFF" d="M171.8628,298.168l3.7798,10.2949c0.4321,1.1514,0.8638,2.5195,1.1519,3.5635h0.0718
			c0.3242-1.0439,0.6841-2.376,1.1162-3.6357l3.4556-10.2227h3.3472l-4.751,12.4189c-2.2681,5.9746-3.8159,8.998-5.9756,10.9062
			c-1.5835,1.332-3.0957,1.8721-3.8872,2.0156l-0.792-2.6279c0.792-0.252,1.8359-0.7559,2.7715-1.5479
			c0.8638-0.6836,1.9077-1.9072,2.6636-3.5273c0.144-0.3242,0.252-0.5762,0.252-0.7559s-0.0718-0.4316-0.252-0.8281l-6.4072-16.0537
			H171.8628z"/>
	</g>
	<g>
		<g>
			<path d="M135.4087,312.5098c-1.4038,0.54-4.2114,1.332-7.4868,1.332c-3.6719,0-6.6953-0.9355-9.0713-3.2031
				c-2.0874-2.0166-3.3833-5.2559-3.3833-9.0352c0-7.2354,5.0034-12.5264,13.1382-12.5264c2.8076,0,5.0396,0.6118,6.0835,1.1157
				l-0.792,2.5557c-1.2959-0.6118-2.9155-1.0439-5.3633-1.0439c-5.9033,0-9.7549,3.6714-9.7549,9.7544
				c0,6.1553,3.6714,9.791,9.3589,9.791c2.0518,0,3.4556-0.2881,4.1753-0.6475v-7.2354h-4.895v-2.5195h7.9907V312.5098z"/>
			<path d="M140.0547,301.6035c0-2.0518-0.0356-3.8159-0.1436-5.4355h2.7715l0.144,3.4556h0.1079
				c0.792-2.3398,2.7358-3.8154,4.8594-3.8154c0.3237,0,0.5762,0.0361,0.8638,0.0718v2.9878
				c-0.3237-0.0718-0.6479-0.0718-1.0796-0.0718c-2.2319,0-3.8154,1.6558-4.2476,4.0312c-0.0723,0.4326-0.1079,0.9717-0.1079,1.4756
				v9.2871h-3.168V301.6035z"/>
			<path d="M163.8857,309.4141c0,1.5117,0.0718,2.9883,0.252,4.1758h-2.8438l-0.252-2.1953h-0.1079
				c-0.9722,1.3672-2.8438,2.5908-5.3271,2.5908c-3.5278,0-5.3276-2.4834-5.3276-5.0029c0-4.2119,3.7437-6.5156,10.4746-6.4785
				v-0.3613c0-1.4033-0.396-4.0308-3.9595-3.9946c-1.6558,0-3.3477,0.4678-4.5713,1.2959l-0.7197-2.124
				c1.4395-0.8999,3.5635-1.5117,5.7593-1.5117c5.3271,0,6.623,3.6357,6.623,7.0913V309.4141z M160.8262,304.6992
				c-3.4556-0.0723-7.3794,0.54-7.3794,3.9229c0,2.0879,1.3682,3.0244,2.9517,3.0244c2.3037,0,3.7798-1.4404,4.2837-2.916
				c0.1079-0.3604,0.144-0.7197,0.144-1.0078V304.6992z"/>
			<path d="M169.8628,296.168l3.7798,10.2949c0.4321,1.1514,0.8638,2.5195,1.1519,3.5635h0.0718
				c0.3242-1.0439,0.6841-2.376,1.1162-3.6357l3.4556-10.2227h3.3472l-4.751,12.4189c-2.2681,5.9746-3.8159,8.998-5.9756,10.9062
				c-1.5835,1.332-3.0957,1.8721-3.8872,2.0156l-0.792-2.6279c0.792-0.252,1.8359-0.7559,2.7715-1.5479
				c0.8638-0.6836,1.9077-1.9072,2.6636-3.5273c0.144-0.3242,0.252-0.5762,0.252-0.7559s-0.0718-0.4316-0.252-0.8281
				l-6.4072-16.0537H169.8628z"/>
		</g>
		<g>
			<path d="M135.4087,312.5098c-1.4038,0.54-4.2114,1.332-7.4868,1.332c-3.6719,0-6.6953-0.9355-9.0713-3.2031
				c-2.0874-2.0166-3.3833-5.2559-3.3833-9.0352c0-7.2354,5.0034-12.5264,13.1382-12.5264c2.8076,0,5.0396,0.6118,6.0835,1.1157
				l-0.792,2.5557c-1.2959-0.6118-2.9155-1.0439-5.3633-1.0439c-5.9033,0-9.7549,3.6714-9.7549,9.7544
				c0,6.1553,3.6714,9.791,9.3589,9.791c2.0518,0,3.4556-0.2881,4.1753-0.6475v-7.2354h-4.895v-2.5195h7.9907V312.5098z"/>
			<path d="M140.0547,301.6035c0-2.0518-0.0356-3.8159-0.1436-5.4355h2.7715l0.144,3.4556h0.1079
				c0.792-2.3398,2.7358-3.8154,4.8594-3.8154c0.3237,0,0.5762,0.0361,0.8638,0.0718v2.9878
				c-0.3237-0.0718-0.6479-0.0718-1.0796-0.0718c-2.2319,0-3.8154,1.6558-4.2476,4.0312c-0.0723,0.4326-0.1079,0.9717-0.1079,1.4756
				v9.2871h-3.168V301.6035z"/>
			<path d="M163.8857,309.4141c0,1.5117,0.0718,2.9883,0.252,4.1758h-2.8438l-0.252-2.1953h-0.1079
				c-0.9722,1.3672-2.8438,2.5908-5.3271,2.5908c-3.5278,0-5.3276-2.4834-5.3276-5.0029c0-4.2119,3.7437-6.5156,10.4746-6.4785
				v-0.3613c0-1.4033-0.396-4.0308-3.9595-3.9946c-1.6558,0-3.3477,0.4678-4.5713,1.2959l-0.7197-2.124
				c1.4395-0.8999,3.5635-1.5117,5.7593-1.5117c5.3271,0,6.623,3.6357,6.623,7.0913V309.4141z M160.8262,304.6992
				c-3.4556-0.0723-7.3794,0.54-7.3794,3.9229c0,2.0879,1.3682,3.0244,2.9517,3.0244c2.3037,0,3.7798-1.4404,4.2837-2.916
				c0.1079-0.3604,0.144-0.7197,0.144-1.0078V304.6992z"/>
			<path d="M169.8628,296.168l3.7798,10.2949c0.4321,1.1514,0.8638,2.5195,1.1519,3.5635h0.0718
				c0.3242-1.0439,0.6841-2.376,1.1162-3.6357l3.4556-10.2227h3.3472l-4.751,12.4189c-2.2681,5.9746-3.8159,8.998-5.9756,10.9062
				c-1.5835,1.332-3.0957,1.8721-3.8872,2.0156l-0.792-2.6279c0.792-0.252,1.8359-0.7559,2.7715-1.5479
				c0.8638-0.6836,1.9077-1.9072,2.6636-3.5273c0.144-0.3242,0.252-0.5762,0.252-0.7559s-0.0718-0.4316-0.252-0.8281
				l-6.4072-16.0537H169.8628z"/>
		</g>
	</g>
</g>
<g>
	<path d="M111.0933,114.0996l-6.1553-24.2607h3.3115l2.8794,12.2744c0.7202,3.0234,1.3682,6.0469,1.7998,8.3867h0.0723
		c0.396-2.4121,1.1519-5.291,1.9795-8.4229l3.2397-12.2383h3.2754l2.9517,12.3101c0.6841,2.8794,1.332,5.7593,1.6919,8.3149h0.0723
		c0.5039-2.6631,1.1875-5.3633,1.9434-8.3867l3.2036-12.2383h3.2036l-6.875,24.2607h-3.2754l-3.0596-12.6343
		c-0.7563-3.0957-1.2603-5.4717-1.584-7.9189h-0.0723c-0.3955,2.4116-0.9717,4.7871-1.8716,7.9189l-3.4556,12.6343H111.0933z"/>
	<path d="M137.3013,88.543h3.168v10.9062h0.0718c0.5039-0.8994,1.2959-1.7275,2.2676-2.2676c0.936-0.54,2.0518-0.8638,3.2397-0.8638
		c2.3398,0,6.0835,1.4399,6.0835,7.415v10.3667h-3.168v-10.0068c0-2.8076-1.0439-5.1475-4.0312-5.1475
		c-2.0518,0-3.6357,1.4399-4.2476,3.1318c-0.1802,0.4678-0.2158,0.936-0.2158,1.5117v10.5107h-3.168V88.543z"/>
	<path d="M160.8086,91.7822c0,1.0801-0.7559,1.9438-2.0156,1.9438c-1.1519,0-1.9077-0.8638-1.9077-1.9438
		c0-1.0796,0.7915-1.9795,1.9795-1.9795C160.0166,89.8027,160.8086,90.6665,160.8086,91.7822z M157.2808,114.0996V96.6777h3.168
		v17.4219H157.2808z"/>
	<path d="M169.5205,92.5024v4.1753h4.5352v2.4116h-4.5352v9.395c0,2.1602,0.6118,3.3838,2.3755,3.3838
		c0.8638,0,1.3677-0.0723,1.8359-0.2158l0.144,2.4111c-0.6123,0.2158-1.584,0.4316-2.8076,0.4316
		c-1.4761,0-2.6641-0.5039-3.4199-1.3311c-0.8638-0.9727-1.2236-2.5195-1.2236-4.5713v-9.5034h-2.6997v-2.4116h2.6997V93.438
		L169.5205,92.5024z"/>
	<path d="M179.1689,105.9648c0.0718,4.2832,2.7715,6.0469,5.9751,6.0469c2.2676,0,3.6714-0.3955,4.8232-0.8994l0.5762,2.2676
		c-1.1157,0.5039-3.0596,1.1152-5.8315,1.1152c-5.3633,0-8.5669-3.5635-8.5669-8.8184c0-5.2554,3.0957-9.3589,8.1709-9.3589
		c5.7236,0,7.1992,4.9673,7.1992,8.1709c0,0.6479-0.0356,1.1157-0.1079,1.4761H179.1689z M188.4556,103.6968
		c0.0361-1.9795-0.8276-5.1113-4.3916-5.1113c-3.2393,0-4.6074,2.9155-4.8594,5.1113H188.4556z"/>
</g>
<g>
	<g>
		<line fill="none" stroke="#000000" stroke-width="3" x1="586.082" y1="253.7739" x2="493.168" y2="194.0977"/>
		<polygon points="500.8906,190.874 475.2324,182.6782 493.3555,202.6055 		"/>
	</g>
</g>
<g>
	<g>
		<line fill="none" stroke="#000000" stroke-width="3" x1="565.084" y1="303.1211" x2="508.5869" y2="303.1211"/>
		<polygon points="513.3428,296.2354 487.3242,303.2051 513.3428,310.1777 		"/>
	</g>
</g>
<g>
	<g>
		<line fill="none" stroke="#000000" stroke-width="3" x1="586.082" y1="344.2871" x2="490.168" y2="404.0859"/>
		<polygon points="490.5605,395.7266 472.1699,415.4062 497.9375,407.5586 		"/>
	</g>
</g>
<g>
	<g>
		<line fill="none" stroke="#000000" stroke-width="3" x1="236.6001" y1="112.6016" x2="293.0962" y2="127.9609"/>
		<polygon points="286.7007,133.3579 313.6362,133.4575 290.3584,119.9033 		"/>
	</g>
</g>
<g>
	<g>
		<line fill="none" stroke="#000000" stroke-width="3" x1="236.6006" y1="487.3984" x2="291.0967" y2="472.0391"/>
		<polygon points="288.3877,479.957 311.5391,466.1895 284.605,466.5371 		"/>
	</g>
</g>
<g>
	<g>
		<line fill="none" stroke="#000000" stroke-width="3" x1="239.6006" y1="303.1211" x2="292.0962" y2="303.1211"/>
		<polygon points="287.3408,310.0068 313.3589,303.0371 287.3408,296.064 		"/>
	</g>
</g>
<g>
	<g>
		<line fill="none" stroke="#000000" stroke-width="3" x1="148.3452" y1="431.8125" x2="148.3452" y2="379.0889"/>
		<polygon points="155.231,383.8447 148.2607,357.8262 141.2881,383.8447 		"/>
	</g>
</g>
<g>
	<g>
		<line fill="none" stroke="#000000" stroke-width="3" x1="148.3452" y1="169.0928" x2="148.3452" y2="222.5957"/>
		<polygon points="141.459,217.8403 148.4297,243.8584 155.4023,217.8403 		"/>
	</g>
</g>
<g>
	<g>
		<line fill="none" stroke="#000000" stroke-width="3" x1="401.0781" y1="392.8125" x2="401.0781" y2="374.0889"/>
		<polygon points="407.9639,378.8447 400.9937,352.8262 394.021,378.8447 		"/>
	</g>
</g>
<g>
	<g>
		<line fill="none" stroke="#000000" stroke-width="3" x1="401.0781" y1="206.0928" x2="401.0781" y2="225.5957"/>
		<polygon points="394.1924,220.8403 401.1621,246.8584 408.1348,220.8403 		"/>
	</g>
</g>
</svg>
